
        <svg xmlns="http://www.w3.org/2000/svg" xmlns:xlink="http://www.w3.org/1999/xlink" version="1.1" width="3187.5" height="1125" viewBox="0 0 3187.5 1125">
			
			<g transform="scale(9.375) translate(10, 10)">
				<defs id="SvgjsDefs2396"/><g id="SvgjsG2397" featureKey="symbolFeature-0" transform="matrix(1.1111111111111112,0,0,1.1111111111111112,-5.555555555555555,-5.555555555555555)" fill="#000"><g xmlns="http://www.w3.org/2000/svg"><path d="M21.806,52.987c0,13.921,11.286,25.207,25.207,25.207S72.22,66.908,72.22,52.987   c0-3.817-0.853-7.434-2.371-10.676l-6.544,6.544c0.334,1.322,0.514,2.706,0.514,4.132c0,9.28-7.525,16.805-16.806,16.805   s-16.805-7.524-16.805-16.805s7.524-16.806,16.805-16.806c1.426,0,2.81,0.18,4.132,0.514l6.544-6.544   c-3.242-1.519-6.858-2.371-10.676-2.371C33.092,27.78,21.806,39.066,21.806,52.987z"/><path d="M82.024,17.976L82.022,5L70.293,16.729l-2.61,10.56L49.875,45.096c-0.895-0.325-1.855-0.511-2.862-0.511   c-4.64,0-8.402,3.762-8.402,8.402c0,4.64,3.763,8.402,8.402,8.402c4.641,0,8.402-3.763,8.402-8.402   c0-1.007-0.186-1.968-0.511-2.862l17.807-17.807l10.561-2.611L95,17.978L82.024,17.976z"/><g><polygon points="84.658,35.45 76.786,37.396 84.658,35.45   "/><path d="M84.658,35.45L84.658,35.45l-7.872,1.946c2.446,4.661,3.837,9.962,3.837,15.591    c0,18.561-15.049,33.61-33.61,33.61c-18.561,0-33.61-15.05-33.61-33.61c0-18.562,15.05-33.61,33.61-33.61    c5.629,0,10.93,1.392,15.591,3.837l1.946-7.872l0,0l0.118-0.477c-5.369-2.491-11.347-3.891-17.655-3.891    C23.811,10.975,5,29.785,5,52.987S23.811,95,47.013,95s42.013-18.811,42.013-42.013c0-6.309-1.398-12.287-3.891-17.655    L84.658,35.45z"/><polygon points="62.604,23.214 64.55,15.342 64.55,15.342   "/></g></g></g><g id="SvgjsG2398" featureKey="nameFeature-0" transform="matrix(0.9240563728531368,0,0,0.9240563728531368,117.44960464005004,26.42879636355843)" fill="#000"><path d="M22.84 11.440000000000001 l0 5.28 l-13.8 0 l0 6.6 l11.96 0 l0 4.88 l-11.96 0 l0 11.8 l-6.28 0 l0 -28.56 l20.08 0 z M37.813 11.440000000000001 c4.0532 0 7.24 1.2533 9.56 3.76 s3.48 5.96 3.48 10.36 c0 4.56 -1.1667 8.1068 -3.5 10.64 s-5.46 3.8 -9.38 3.8 l-12.4 0 l0 -28.56 l12.24 0 z M37.413 34.72 c2.2667 0 4.0268 -0.74668 5.28 -2.24 s1.88 -3.6133 1.88 -6.36 c0 -3.1467 -0.67332 -5.5 -2.02 -7.06 s-3.42 -2.34 -6.22 -2.34 l-4.48 0 l0 18 l5.56 0 z M66.54599999999999 11.440000000000001 c4.0532 0 7.24 1.2533 9.56 3.76 s3.48 5.96 3.48 10.36 c0 4.56 -1.1667 8.1068 -3.5 10.64 s-5.46 3.8 -9.38 3.8 l-12.4 0 l0 -28.56 l12.24 0 z M66.146 34.72 c2.2667 0 4.0268 -0.74668 5.28 -2.24 s1.88 -3.6133 1.88 -6.36 c0 -3.1467 -0.67332 -5.5 -2.02 -7.06 s-3.42 -2.34 -6.22 -2.34 l-4.48 0 l0 18 l5.56 0 z M97.279 11.440000000000001 l10.68 28.56 l-6.52 0 l-2.16 -6.36 l-10.68 0 l-2.24 6.36 l-6.36 0 l10.84 -28.56 l6.44 0 z M93.959 18.48 l-3.72 10.48 l7.4 0 l-3.6 -10.48 l-0.08 0 z M129.09199999999998 11.440000000000001 l0 28.56 l-5.4 0 l0 -2.64 l-0.08 0 c-1.2267 2.1333 -3.32 3.2 -6.28 3.2 c-2.8533 0 -5.1132 -1.04 -6.78 -3.12 s-2.5 -4.7332 -2.5 -7.96 c0 -3.1467 0.84668 -5.72 2.54 -7.72 s3.9 -3 6.62 -3 c1.2533 0 2.4333 0.26 3.54 0.78 s1.9667 1.2867 2.58 2.3 l0.08 0 l0 -10.4 l5.68 0 z M113.73199999999999 29.64 c0 1.8933 0.44664 3.4733 1.34 4.74 s2.1133 1.9 3.66 1.9 c1.6267 0 2.8467 -0.59332 3.66 -1.78 s1.22 -2.82 1.22 -4.9 s-0.42668 -3.6933 -1.28 -4.84 s-2.0666 -1.72 -3.64 -1.72 c-1.6267 0 -2.86 0.6 -3.7 1.8 s-1.26 2.8 -1.26 4.8 z M136.465 19.32 l4.36 14.12 l0.08 0 l4.36 -14.12 l5.64 0 l-7 20.68 l-6.32 0 l-7.08 -20.68 l5.96 0 z M158.198 11.440000000000001 l0 4.68 l-5.68 0 l0 -4.68 l5.68 0 z M158.198 19.32 l0 20.68 l-5.68 0 l0 -20.68 l5.68 0 z M170.25100000000003 18.76 c2.7733 0 4.94 0.56004 6.5 1.68 s2.4333 2.76 2.62 4.92 l-5.4 0 c-0.08 -0.98668 -0.44 -1.7 -1.08 -2.14 s-1.5733 -0.66 -2.8 -0.66 c-1.0667 0 -1.86 0.16 -2.38 0.48 s-0.78 0.8 -0.78 1.44 c0 0.48 0.17332 0.88 0.52 1.2 s0.87336 0.6 1.58 0.84 s1.4867 0.44 2.34 0.6 c2.5867 0.50668 4.4132 1.0267 5.48 1.56 s1.8467 1.1733 2.34 1.92 s0.74 1.6667 0.74 2.76 c0 2.32 -0.84668 4.1 -2.54 5.34 s-3.9933 1.86 -6.9 1.86 c-3.04 0 -5.4068 -0.65332 -7.1 -1.96 s-2.5666 -3.08 -2.62 -5.32 l5.4 0 c0 1.0667 0.41332 1.9134 1.24 2.54 s1.8667 0.94 3.12 0.94 c1.0667 0 1.9534 -0.23332 2.66 -0.7 s1.06 -1.1134 1.06 -1.94 c0 -0.53332 -0.22 -0.97332 -0.66 -1.32 s-1.06 -0.65336 -1.86 -0.92004 s-2.04 -0.57336 -3.72 -0.92004 c-1.3333 -0.26668 -2.52 -0.62668 -3.56 -1.08 s-1.8333 -1.0466 -2.38 -1.78 s-0.82 -1.6333 -0.82 -2.7 c0 -1.36 0.32668 -2.5467 0.98 -3.56 s1.6533 -1.78 3 -2.3 s3.02 -0.78 5.02 -0.78 z M192.38400000000001 18.76 c3.3067 0 5.92 1.0067 7.84 3.02 s2.88 4.6468 2.88 7.9 c0 3.28 -0.98 5.9132 -2.94 7.9 s-4.5532 2.98 -7.78 2.98 c-3.28 0 -5.88 -1.0067 -7.8 -3.02 s-2.88 -4.6332 -2.88 -7.86 c0 -3.3333 0.98 -5.9868 2.94 -7.96 s4.54 -2.96 7.74 -2.96 z M187.38400000000001 29.68 c0 2.1067 0.42668 3.7333 1.28 4.88 s2.0933 1.72 3.72 1.72 c1.68 0 2.94 -0.58668 3.78 -1.76 s1.26 -2.7866 1.26 -4.84 c0 -2.1333 -0.43332 -3.7733 -1.3 -4.92 s-2.1267 -1.72 -3.78 -1.72 c-1.6 0 -2.8267 0.57332 -3.68 1.72 s-1.28 2.7867 -1.28 4.92 z M217.95700000000005 18.76 c0.48 0 0.89336 0.06668 1.24 0.2 l0 5.28 c-0.61332 -0.13332 -1.2933 -0.2 -2.04 -0.2 c-3.7333 0 -5.6 2.2133 -5.6 6.64 l0 9.32 l-5.68 0 l0 -20.68 l5.4 0 l0 3.84 l0.08 0 c0.56 -1.3333 1.4467 -2.4 2.66 -3.2 s2.5266 -1.2 3.94 -1.2 z"/></g>
			</g>
		</svg>
	